<?xml version="1.0" encoding="utf-8" standalone="no"?>
<!DOCTYPE svg PUBLIC "-//W3C//DTD SVG 1.1//EN"
  "http://www.w3.org/Graphics/SVG/1.1/DTD/svg11.dtd">
<svg xmlns:xlink="http://www.w3.org/1999/xlink" width="575.297937pt" height="328.113621pt" viewBox="0 0 575.297937 328.113621" xmlns="http://www.w3.org/2000/svg" version="1.1">
 <metadata>
  <rdf:RDF xmlns:dc="http://purl.org/dc/elements/1.1/" xmlns:cc="http://creativecommons.org/ns#" xmlns:rdf="http://www.w3.org/1999/02/22-rdf-syntax-ns#">
   <cc:Work>
    <dc:type rdf:resource="http://purl.org/dc/dcmitype/StillImage"/>
    <dc:date>2025-07-05T23:19:37.137671</dc:date>
    <dc:format>image/svg+xml</dc:format>
    <dc:creator>
     <cc:Agent>
      <dc:title>Matplotlib v3.5.0, https://matplotlib.org/</dc:title>
     </cc:Agent>
    </dc:creator>
   </cc:Work>
  </rdf:RDF>
 </metadata>
 <defs>
  <style type="text/css">*{stroke-linejoin: round; stroke-linecap: butt}</style>
 </defs>
 <g id="figure_1">
  <g id="patch_1">
   <path d="M 0 328.113621 
L 575.297937 328.113621 
L 575.297937 0 
L 0 0 
z
" style="fill: #ffffff; stroke: #ffffff; stroke-linejoin: miter"/>
  </g>
  <g id="axes_1">
   <g id="patch_2">
    <path d="M 46.789688 292.400933 
L 403.909688 292.400933 
L 403.909688 26.288933 
L 46.789688 26.288933 
z
" style="fill: #ebebeb"/>
   </g>
   <g id="matplotlib.axis_1">
    <g id="xtick_1">
     <g id="line2d_1">
      <path d="M 87.995841 292.400933 
L 87.995841 26.288933 
" clip-path="url(#pff44f13876)" style="fill: none; stroke: #ffffff"/>
     </g>
     <g id="line2d_2">
      <path d="M 87.995841 292.400933 
" style="fill: none; stroke: #333333; stroke-width: 1.5"/>
      <defs>
       <path id="m894b34f545" d="M 0 0 
L 0 2.75 
" style="stroke: #000000"/>
      </defs>
      <g>
       <use xlink:href="#m894b34f545" x="87.995841" y="292.400933" style="fill: #333333; stroke: #000000"/>
      </g>
     </g>
     <g id="text_1">
      <!-- AUC -->
      <g style="fill: #4d4d4d" transform="translate(78.693279 304.037558)scale(0.088 -0.088)">
       <defs>
        <path id="DejaVuSans-41" d="M 2188 4044 
L 1331 1722 
L 3047 1722 
L 2188 4044 
z
M 1831 4666 
L 2547 4666 
L 4325 0 
L 3669 0 
L 3244 1197 
L 1141 1197 
L 716 0 
L 50 0 
L 1831 4666 
z
" transform="scale(0.015625)"/>
        <path id="DejaVuSans-55" d="M 556 4666 
L 1191 4666 
L 1191 1831 
Q 1191 1081 1462 751 
Q 1734 422 2344 422 
Q 2950 422 3222 751 
Q 3494 1081 3494 1831 
L 3494 4666 
L 4128 4666 
L 4128 1753 
Q 4128 841 3676 375 
Q 3225 -91 2344 -91 
Q 1459 -91 1007 375 
Q 556 841 556 1753 
L 556 4666 
z
" transform="scale(0.015625)"/>
        <path id="DejaVuSans-43" d="M 4122 4306 
L 4122 3641 
Q 3803 3938 3442 4084 
Q 3081 4231 2675 4231 
Q 1875 4231 1450 3742 
Q 1025 3253 1025 2328 
Q 1025 1406 1450 917 
Q 1875 428 2675 428 
Q 3081 428 3442 575 
Q 3803 722 4122 1019 
L 4122 359 
Q 3791 134 3420 21 
Q 3050 -91 2638 -91 
Q 1578 -91 968 557 
Q 359 1206 359 2328 
Q 359 3453 968 4101 
Q 1578 4750 2638 4750 
Q 3056 4750 3426 4639 
Q 3797 4528 4122 4306 
z
" transform="scale(0.015625)"/>
       </defs>
       <use xlink:href="#DejaVuSans-41"/>
       <use xlink:href="#DejaVuSans-55" x="68.408203"/>
       <use xlink:href="#DejaVuSans-43" x="141.601562"/>
      </g>
     </g>
    </g>
    <g id="xtick_2">
     <g id="line2d_3">
      <path d="M 156.672764 292.400933 
L 156.672764 26.288933 
" clip-path="url(#pff44f13876)" style="fill: none; stroke: #ffffff"/>
     </g>
     <g id="line2d_4">
      <path d="M 156.672764 292.400933 
" style="fill: none; stroke: #333333; stroke-width: 1.5"/>
      <g>
       <use xlink:href="#m894b34f545" x="156.672764" y="292.400933" style="fill: #333333; stroke: #000000"/>
      </g>
     </g>
     <g id="text_2">
      <!-- IFAC -->
      <g style="fill: #4d4d4d" transform="translate(147.240264 304.037558)scale(0.088 -0.088)">
       <defs>
        <path id="DejaVuSans-49" d="M 628 4666 
L 1259 4666 
L 1259 0 
L 628 0 
L 628 4666 
z
" transform="scale(0.015625)"/>
        <path id="DejaVuSans-46" d="M 628 4666 
L 3309 4666 
L 3309 4134 
L 1259 4134 
L 1259 2759 
L 3109 2759 
L 3109 2228 
L 1259 2228 
L 1259 0 
L 628 0 
L 628 4666 
z
" transform="scale(0.015625)"/>
       </defs>
       <use xlink:href="#DejaVuSans-49"/>
       <use xlink:href="#DejaVuSans-46" x="29.492188"/>
       <use xlink:href="#DejaVuSans-41" x="77.886719"/>
       <use xlink:href="#DejaVuSans-43" x="144.544922"/>
      </g>
     </g>
    </g>
    <g id="xtick_3">
     <g id="line2d_5">
      <path d="M 225.349688 292.400933 
L 225.349688 26.288933 
" clip-path="url(#pff44f13876)" style="fill: none; stroke: #ffffff"/>
     </g>
     <g id="line2d_6">
      <path d="M 225.349688 292.400933 
" style="fill: none; stroke: #333333; stroke-width: 1.5"/>
      <g>
       <use xlink:href="#m894b34f545" x="225.349688" y="292.400933" style="fill: #333333; stroke: #000000"/>
      </g>
     </g>
     <g id="text_3">
      <!-- PlugIn -->
      <g style="fill: #4d4d4d" transform="translate(211.805938 304.037558)scale(0.088 -0.088)">
       <defs>
        <path id="DejaVuSans-50" d="M 1259 4147 
L 1259 2394 
L 2053 2394 
Q 2494 2394 2734 2622 
Q 2975 2850 2975 3272 
Q 2975 3691 2734 3919 
Q 2494 4147 2053 4147 
L 1259 4147 
z
M 628 4666 
L 2053 4666 
Q 2838 4666 3239 4311 
Q 3641 3956 3641 3272 
Q 3641 2581 3239 2228 
Q 2838 1875 2053 1875 
L 1259 1875 
L 1259 0 
L 628 0 
L 628 4666 
z
" transform="scale(0.015625)"/>
        <path id="DejaVuSans-6c" d="M 603 4863 
L 1178 4863 
L 1178 0 
L 603 0 
L 603 4863 
z
" transform="scale(0.015625)"/>
        <path id="DejaVuSans-75" d="M 544 1381 
L 544 3500 
L 1119 3500 
L 1119 1403 
Q 1119 906 1312 657 
Q 1506 409 1894 409 
Q 2359 409 2629 706 
Q 2900 1003 2900 1516 
L 2900 3500 
L 3475 3500 
L 3475 0 
L 2900 0 
L 2900 538 
Q 2691 219 2414 64 
Q 2138 -91 1772 -91 
Q 1169 -91 856 284 
Q 544 659 544 1381 
z
M 1991 3584 
L 1991 3584 
z
" transform="scale(0.015625)"/>
        <path id="DejaVuSans-67" d="M 2906 1791 
Q 2906 2416 2648 2759 
Q 2391 3103 1925 3103 
Q 1463 3103 1205 2759 
Q 947 2416 947 1791 
Q 947 1169 1205 825 
Q 1463 481 1925 481 
Q 2391 481 2648 825 
Q 2906 1169 2906 1791 
z
M 3481 434 
Q 3481 -459 3084 -895 
Q 2688 -1331 1869 -1331 
Q 1566 -1331 1297 -1286 
Q 1028 -1241 775 -1147 
L 775 -588 
Q 1028 -725 1275 -790 
Q 1522 -856 1778 -856 
Q 2344 -856 2625 -561 
Q 2906 -266 2906 331 
L 2906 616 
Q 2728 306 2450 153 
Q 2172 0 1784 0 
Q 1141 0 747 490 
Q 353 981 353 1791 
Q 353 2603 747 3093 
Q 1141 3584 1784 3584 
Q 2172 3584 2450 3431 
Q 2728 3278 2906 2969 
L 2906 3500 
L 3481 3500 
L 3481 434 
z
" transform="scale(0.015625)"/>
        <path id="DejaVuSans-6e" d="M 3513 2113 
L 3513 0 
L 2938 0 
L 2938 2094 
Q 2938 2591 2744 2837 
Q 2550 3084 2163 3084 
Q 1697 3084 1428 2787 
Q 1159 2491 1159 1978 
L 1159 0 
L 581 0 
L 581 3500 
L 1159 3500 
L 1159 2956 
Q 1366 3272 1645 3428 
Q 1925 3584 2291 3584 
Q 2894 3584 3203 3211 
Q 3513 2838 3513 2113 
z
" transform="scale(0.015625)"/>
       </defs>
       <use xlink:href="#DejaVuSans-50"/>
       <use xlink:href="#DejaVuSans-6c" x="60.302734"/>
       <use xlink:href="#DejaVuSans-75" x="88.085938"/>
       <use xlink:href="#DejaVuSans-67" x="151.464844"/>
       <use xlink:href="#DejaVuSans-49" x="214.941406"/>
       <use xlink:href="#DejaVuSans-6e" x="244.433594"/>
      </g>
     </g>
    </g>
    <g id="xtick_4">
     <g id="line2d_7">
      <path d="M 294.026611 292.400933 
L 294.026611 26.288933 
" clip-path="url(#pff44f13876)" style="fill: none; stroke: #ffffff"/>
     </g>
     <g id="line2d_8">
      <path d="M 294.026611 292.400933 
" style="fill: none; stroke: #333333; stroke-width: 1.5"/>
      <g>
       <use xlink:href="#m894b34f545" x="294.026611" y="292.400933" style="fill: #333333; stroke: #000000"/>
      </g>
     </g>
     <g id="text_4">
      <!-- SCross -->
      <g style="fill: #4d4d4d" transform="translate(279.174548 304.037558)scale(0.088 -0.088)">
       <defs>
        <path id="DejaVuSans-53" d="M 3425 4513 
L 3425 3897 
Q 3066 4069 2747 4153 
Q 2428 4238 2131 4238 
Q 1616 4238 1336 4038 
Q 1056 3838 1056 3469 
Q 1056 3159 1242 3001 
Q 1428 2844 1947 2747 
L 2328 2669 
Q 3034 2534 3370 2195 
Q 3706 1856 3706 1288 
Q 3706 609 3251 259 
Q 2797 -91 1919 -91 
Q 1588 -91 1214 -16 
Q 841 59 441 206 
L 441 856 
Q 825 641 1194 531 
Q 1563 422 1919 422 
Q 2459 422 2753 634 
Q 3047 847 3047 1241 
Q 3047 1584 2836 1778 
Q 2625 1972 2144 2069 
L 1759 2144 
Q 1053 2284 737 2584 
Q 422 2884 422 3419 
Q 422 4038 858 4394 
Q 1294 4750 2059 4750 
Q 2388 4750 2728 4690 
Q 3069 4631 3425 4513 
z
" transform="scale(0.015625)"/>
        <path id="DejaVuSans-72" d="M 2631 2963 
Q 2534 3019 2420 3045 
Q 2306 3072 2169 3072 
Q 1681 3072 1420 2755 
Q 1159 2438 1159 1844 
L 1159 0 
L 581 0 
L 581 3500 
L 1159 3500 
L 1159 2956 
Q 1341 3275 1631 3429 
Q 1922 3584 2338 3584 
Q 2397 3584 2469 3576 
Q 2541 3569 2628 3553 
L 2631 2963 
z
" transform="scale(0.015625)"/>
        <path id="DejaVuSans-6f" d="M 1959 3097 
Q 1497 3097 1228 2736 
Q 959 2375 959 1747 
Q 959 1119 1226 758 
Q 1494 397 1959 397 
Q 2419 397 2687 759 
Q 2956 1122 2956 1747 
Q 2956 2369 2687 2733 
Q 2419 3097 1959 3097 
z
M 1959 3584 
Q 2709 3584 3137 3096 
Q 3566 2609 3566 1747 
Q 3566 888 3137 398 
Q 2709 -91 1959 -91 
Q 1206 -91 779 398 
Q 353 888 353 1747 
Q 353 2609 779 3096 
Q 1206 3584 1959 3584 
z
" transform="scale(0.015625)"/>
        <path id="DejaVuSans-73" d="M 2834 3397 
L 2834 2853 
Q 2591 2978 2328 3040 
Q 2066 3103 1784 3103 
Q 1356 3103 1142 2972 
Q 928 2841 928 2578 
Q 928 2378 1081 2264 
Q 1234 2150 1697 2047 
L 1894 2003 
Q 2506 1872 2764 1633 
Q 3022 1394 3022 966 
Q 3022 478 2636 193 
Q 2250 -91 1575 -91 
Q 1294 -91 989 -36 
Q 684 19 347 128 
L 347 722 
Q 666 556 975 473 
Q 1284 391 1588 391 
Q 1994 391 2212 530 
Q 2431 669 2431 922 
Q 2431 1156 2273 1281 
Q 2116 1406 1581 1522 
L 1381 1569 
Q 847 1681 609 1914 
Q 372 2147 372 2553 
Q 372 3047 722 3315 
Q 1072 3584 1716 3584 
Q 2034 3584 2315 3537 
Q 2597 3491 2834 3397 
z
" transform="scale(0.015625)"/>
       </defs>
       <use xlink:href="#DejaVuSans-53"/>
       <use xlink:href="#DejaVuSans-43" x="63.476562"/>
       <use xlink:href="#DejaVuSans-72" x="133.300781"/>
       <use xlink:href="#DejaVuSans-6f" x="172.164062"/>
       <use xlink:href="#DejaVuSans-73" x="233.345703"/>
       <use xlink:href="#DejaVuSans-73" x="285.445312"/>
      </g>
     </g>
    </g>
    <g id="xtick_5">
     <g id="line2d_9">
      <path d="M 362.703534 292.400933 
L 362.703534 26.288933 
" clip-path="url(#pff44f13876)" style="fill: none; stroke: #ffffff"/>
     </g>
     <g id="line2d_10">
      <path d="M 362.703534 292.400933 
" style="fill: none; stroke: #333333; stroke-width: 1.5"/>
      <g>
       <use xlink:href="#m894b34f545" x="362.703534" y="292.400933" style="fill: #333333; stroke: #000000"/>
      </g>
     </g>
     <g id="text_5">
      <!-- Schreuder -->
      <g style="fill: #4d4d4d" transform="translate(340.187221 304.037558)scale(0.088 -0.088)">
       <defs>
        <path id="DejaVuSans-63" d="M 3122 3366 
L 3122 2828 
Q 2878 2963 2633 3030 
Q 2388 3097 2138 3097 
Q 1578 3097 1268 2742 
Q 959 2388 959 1747 
Q 959 1106 1268 751 
Q 1578 397 2138 397 
Q 2388 397 2633 464 
Q 2878 531 3122 666 
L 3122 134 
Q 2881 22 2623 -34 
Q 2366 -91 2075 -91 
Q 1284 -91 818 406 
Q 353 903 353 1747 
Q 353 2603 823 3093 
Q 1294 3584 2113 3584 
Q 2378 3584 2631 3529 
Q 2884 3475 3122 3366 
z
" transform="scale(0.015625)"/>
        <path id="DejaVuSans-68" d="M 3513 2113 
L 3513 0 
L 2938 0 
L 2938 2094 
Q 2938 2591 2744 2837 
Q 2550 3084 2163 3084 
Q 1697 3084 1428 2787 
Q 1159 2491 1159 1978 
L 1159 0 
L 581 0 
L 581 4863 
L 1159 4863 
L 1159 2956 
Q 1366 3272 1645 3428 
Q 1925 3584 2291 3584 
Q 2894 3584 3203 3211 
Q 3513 2838 3513 2113 
z
" transform="scale(0.015625)"/>
        <path id="DejaVuSans-65" d="M 3597 1894 
L 3597 1613 
L 953 1613 
Q 991 1019 1311 708 
Q 1631 397 2203 397 
Q 2534 397 2845 478 
Q 3156 559 3463 722 
L 3463 178 
Q 3153 47 2828 -22 
Q 2503 -91 2169 -91 
Q 1331 -91 842 396 
Q 353 884 353 1716 
Q 353 2575 817 3079 
Q 1281 3584 2069 3584 
Q 2775 3584 3186 3129 
Q 3597 2675 3597 1894 
z
M 3022 2063 
Q 3016 2534 2758 2815 
Q 2500 3097 2075 3097 
Q 1594 3097 1305 2825 
Q 1016 2553 972 2059 
L 3022 2063 
z
" transform="scale(0.015625)"/>
        <path id="DejaVuSans-64" d="M 2906 2969 
L 2906 4863 
L 3481 4863 
L 3481 0 
L 2906 0 
L 2906 525 
Q 2725 213 2448 61 
Q 2172 -91 1784 -91 
Q 1150 -91 751 415 
Q 353 922 353 1747 
Q 353 2572 751 3078 
Q 1150 3584 1784 3584 
Q 2172 3584 2448 3432 
Q 2725 3281 2906 2969 
z
M 947 1747 
Q 947 1113 1208 752 
Q 1469 391 1925 391 
Q 2381 391 2643 752 
Q 2906 1113 2906 1747 
Q 2906 2381 2643 2742 
Q 2381 3103 1925 3103 
Q 1469 3103 1208 2742 
Q 947 2381 947 1747 
z
" transform="scale(0.015625)"/>
       </defs>
       <use xlink:href="#DejaVuSans-53"/>
       <use xlink:href="#DejaVuSans-63" x="63.476562"/>
       <use xlink:href="#DejaVuSans-68" x="118.457031"/>
       <use xlink:href="#DejaVuSans-72" x="181.835938"/>
       <use xlink:href="#DejaVuSans-65" x="220.699219"/>
       <use xlink:href="#DejaVuSans-75" x="282.222656"/>
       <use xlink:href="#DejaVuSans-64" x="345.601562"/>
       <use xlink:href="#DejaVuSans-65" x="409.078125"/>
       <use xlink:href="#DejaVuSans-72" x="470.601562"/>
      </g>
     </g>
    </g>
    <g id="text_6">
     <!-- Classification Type -->
     <g transform="translate(168.819531 318.625964)scale(0.11 -0.11)">
      <defs>
       <path id="DejaVuSans-61" d="M 2194 1759 
Q 1497 1759 1228 1600 
Q 959 1441 959 1056 
Q 959 750 1161 570 
Q 1363 391 1709 391 
Q 2188 391 2477 730 
Q 2766 1069 2766 1631 
L 2766 1759 
L 2194 1759 
z
M 3341 1997 
L 3341 0 
L 2766 0 
L 2766 531 
Q 2569 213 2275 61 
Q 1981 -91 1556 -91 
Q 1019 -91 701 211 
Q 384 513 384 1019 
Q 384 1609 779 1909 
Q 1175 2209 1959 2209 
L 2766 2209 
L 2766 2266 
Q 2766 2663 2505 2880 
Q 2244 3097 1772 3097 
Q 1472 3097 1187 3025 
Q 903 2953 641 2809 
L 641 3341 
Q 956 3463 1253 3523 
Q 1550 3584 1831 3584 
Q 2591 3584 2966 3190 
Q 3341 2797 3341 1997 
z
" transform="scale(0.015625)"/>
       <path id="DejaVuSans-69" d="M 603 3500 
L 1178 3500 
L 1178 0 
L 603 0 
L 603 3500 
z
M 603 4863 
L 1178 4863 
L 1178 4134 
L 603 4134 
L 603 4863 
z
" transform="scale(0.015625)"/>
       <path id="DejaVuSans-66" d="M 2375 4863 
L 2375 4384 
L 1825 4384 
Q 1516 4384 1395 4259 
Q 1275 4134 1275 3809 
L 1275 3500 
L 2222 3500 
L 2222 3053 
L 1275 3053 
L 1275 0 
L 697 0 
L 697 3053 
L 147 3053 
L 147 3500 
L 697 3500 
L 697 3744 
Q 697 4328 969 4595 
Q 1241 4863 1831 4863 
L 2375 4863 
z
" transform="scale(0.015625)"/>
       <path id="DejaVuSans-74" d="M 1172 4494 
L 1172 3500 
L 2356 3500 
L 2356 3053 
L 1172 3053 
L 1172 1153 
Q 1172 725 1289 603 
Q 1406 481 1766 481 
L 2356 481 
L 2356 0 
L 1766 0 
Q 1100 0 847 248 
Q 594 497 594 1153 
L 594 3053 
L 172 3053 
L 172 3500 
L 594 3500 
L 594 4494 
L 1172 4494 
z
" transform="scale(0.015625)"/>
       <path id="DejaVuSans-20" transform="scale(0.015625)"/>
       <path id="DejaVuSans-54" d="M -19 4666 
L 3928 4666 
L 3928 4134 
L 2272 4134 
L 2272 0 
L 1638 0 
L 1638 4134 
L -19 4134 
L -19 4666 
z
" transform="scale(0.015625)"/>
       <path id="DejaVuSans-79" d="M 2059 -325 
Q 1816 -950 1584 -1140 
Q 1353 -1331 966 -1331 
L 506 -1331 
L 506 -850 
L 844 -850 
Q 1081 -850 1212 -737 
Q 1344 -625 1503 -206 
L 1606 56 
L 191 3500 
L 800 3500 
L 1894 763 
L 2988 3500 
L 3597 3500 
L 2059 -325 
z
" transform="scale(0.015625)"/>
       <path id="DejaVuSans-70" d="M 1159 525 
L 1159 -1331 
L 581 -1331 
L 581 3500 
L 1159 3500 
L 1159 2969 
Q 1341 3281 1617 3432 
Q 1894 3584 2278 3584 
Q 2916 3584 3314 3078 
Q 3713 2572 3713 1747 
Q 3713 922 3314 415 
Q 2916 -91 2278 -91 
Q 1894 -91 1617 61 
Q 1341 213 1159 525 
z
M 3116 1747 
Q 3116 2381 2855 2742 
Q 2594 3103 2138 3103 
Q 1681 3103 1420 2742 
Q 1159 2381 1159 1747 
Q 1159 1113 1420 752 
Q 1681 391 2138 391 
Q 2594 391 2855 752 
Q 3116 1113 3116 1747 
z
" transform="scale(0.015625)"/>
      </defs>
      <use xlink:href="#DejaVuSans-43"/>
      <use xlink:href="#DejaVuSans-6c" x="69.824219"/>
      <use xlink:href="#DejaVuSans-61" x="97.607422"/>
      <use xlink:href="#DejaVuSans-73" x="158.886719"/>
      <use xlink:href="#DejaVuSans-73" x="210.986328"/>
      <use xlink:href="#DejaVuSans-69" x="263.085938"/>
      <use xlink:href="#DejaVuSans-66" x="290.869141"/>
      <use xlink:href="#DejaVuSans-69" x="326.074219"/>
      <use xlink:href="#DejaVuSans-63" x="353.857422"/>
      <use xlink:href="#DejaVuSans-61" x="408.837891"/>
      <use xlink:href="#DejaVuSans-74" x="470.117188"/>
      <use xlink:href="#DejaVuSans-69" x="509.326172"/>
      <use xlink:href="#DejaVuSans-6f" x="537.109375"/>
      <use xlink:href="#DejaVuSans-6e" x="598.291016"/>
      <use xlink:href="#DejaVuSans-20" x="661.669922"/>
      <use xlink:href="#DejaVuSans-54" x="693.457031"/>
      <use xlink:href="#DejaVuSans-79" x="738.916016"/>
      <use xlink:href="#DejaVuSans-70" x="798.095703"/>
      <use xlink:href="#DejaVuSans-65" x="861.572266"/>
     </g>
    </g>
   </g>
   <g id="matplotlib.axis_2">
    <g id="ytick_1">
     <g id="line2d_11">
      <path d="M 46.789688 280.304933 
L 403.909688 280.304933 
" clip-path="url(#pff44f13876)" style="fill: none; stroke: #ffffff"/>
     </g>
     <g id="line2d_12">
      <path d="M 46.789688 280.304933 
" style="fill: none; stroke: #333333; stroke-width: 1.5"/>
      <defs>
       <path id="m47b4f96eb0" d="M 0 0 
L -2.75 0 
" style="stroke: #000000"/>
      </defs>
      <g>
       <use xlink:href="#m47b4f96eb0" x="46.789688" y="280.304933" style="fill: #333333; stroke: #000000"/>
      </g>
     </g>
     <g id="text_7">
      <!-- 0 -->
      <g style="fill: #4d4d4d" transform="translate(36.240688 282.733183)scale(0.088 -0.088)">
       <defs>
        <path id="DejaVuSans-30" d="M 2034 4250 
Q 1547 4250 1301 3770 
Q 1056 3291 1056 2328 
Q 1056 1369 1301 889 
Q 1547 409 2034 409 
Q 2525 409 2770 889 
Q 3016 1369 3016 2328 
Q 3016 3291 2770 3770 
Q 2525 4250 2034 4250 
z
M 2034 4750 
Q 2819 4750 3233 4129 
Q 3647 3509 3647 2328 
Q 3647 1150 3233 529 
Q 2819 -91 2034 -91 
Q 1250 -91 836 529 
Q 422 1150 422 2328 
Q 422 3509 836 4129 
Q 1250 4750 2034 4750 
z
" transform="scale(0.015625)"/>
       </defs>
       <use xlink:href="#DejaVuSans-30"/>
      </g>
     </g>
    </g>
    <g id="ytick_2">
     <g id="line2d_13">
      <path d="M 46.789688 219.824933 
L 403.909688 219.824933 
" clip-path="url(#pff44f13876)" style="fill: none; stroke: #ffffff"/>
     </g>
     <g id="line2d_14">
      <path d="M 46.789688 219.824933 
" style="fill: none; stroke: #333333; stroke-width: 1.5"/>
      <g>
       <use xlink:href="#m47b4f96eb0" x="46.789688" y="219.824933" style="fill: #333333; stroke: #000000"/>
      </g>
     </g>
     <g id="text_8">
      <!-- 0.25 -->
      <g style="fill: #4d4d4d" transform="translate(22.245938 222.253183)scale(0.088 -0.088)">
       <defs>
        <path id="DejaVuSans-2e" d="M 684 794 
L 1344 794 
L 1344 0 
L 684 0 
L 684 794 
z
" transform="scale(0.015625)"/>
        <path id="DejaVuSans-32" d="M 1228 531 
L 3431 531 
L 3431 0 
L 469 0 
L 469 531 
Q 828 903 1448 1529 
Q 2069 2156 2228 2338 
Q 2531 2678 2651 2914 
Q 2772 3150 2772 3378 
Q 2772 3750 2511 3984 
Q 2250 4219 1831 4219 
Q 1534 4219 1204 4116 
Q 875 4013 500 3803 
L 500 4441 
Q 881 4594 1212 4672 
Q 1544 4750 1819 4750 
Q 2544 4750 2975 4387 
Q 3406 4025 3406 3419 
Q 3406 3131 3298 2873 
Q 3191 2616 2906 2266 
Q 2828 2175 2409 1742 
Q 1991 1309 1228 531 
z
" transform="scale(0.015625)"/>
        <path id="DejaVuSans-35" d="M 691 4666 
L 3169 4666 
L 3169 4134 
L 1269 4134 
L 1269 2991 
Q 1406 3038 1543 3061 
Q 1681 3084 1819 3084 
Q 2600 3084 3056 2656 
Q 3513 2228 3513 1497 
Q 3513 744 3044 326 
Q 2575 -91 1722 -91 
Q 1428 -91 1123 -41 
Q 819 9 494 109 
L 494 744 
Q 775 591 1075 516 
Q 1375 441 1709 441 
Q 2250 441 2565 725 
Q 2881 1009 2881 1497 
Q 2881 1984 2565 2268 
Q 2250 2553 1709 2553 
Q 1456 2553 1204 2497 
Q 953 2441 691 2322 
L 691 4666 
z
" transform="scale(0.015625)"/>
       </defs>
       <use xlink:href="#DejaVuSans-30"/>
       <use xlink:href="#DejaVuSans-2e" x="63.623047"/>
       <use xlink:href="#DejaVuSans-32" x="95.410156"/>
       <use xlink:href="#DejaVuSans-35" x="159.033203"/>
      </g>
     </g>
    </g>
    <g id="ytick_3">
     <g id="line2d_15">
      <path d="M 46.789688 159.344933 
L 403.909688 159.344933 
" clip-path="url(#pff44f13876)" style="fill: none; stroke: #ffffff"/>
     </g>
     <g id="line2d_16">
      <path d="M 46.789688 159.344933 
" style="fill: none; stroke: #333333; stroke-width: 1.5"/>
      <g>
       <use xlink:href="#m47b4f96eb0" x="46.789688" y="159.344933" style="fill: #333333; stroke: #000000"/>
      </g>
     </g>
     <g id="text_9">
      <!-- 0.50 -->
      <g style="fill: #4d4d4d" transform="translate(22.245938 161.773183)scale(0.088 -0.088)">
       <use xlink:href="#DejaVuSans-30"/>
       <use xlink:href="#DejaVuSans-2e" x="63.623047"/>
       <use xlink:href="#DejaVuSans-35" x="95.410156"/>
       <use xlink:href="#DejaVuSans-30" x="159.033203"/>
      </g>
     </g>
    </g>
    <g id="ytick_4">
     <g id="line2d_17">
      <path d="M 46.789688 98.864933 
L 403.909688 98.864933 
" clip-path="url(#pff44f13876)" style="fill: none; stroke: #ffffff"/>
     </g>
     <g id="line2d_18">
      <path d="M 46.789688 98.864933 
" style="fill: none; stroke: #333333; stroke-width: 1.5"/>
      <g>
       <use xlink:href="#m47b4f96eb0" x="46.789688" y="98.864933" style="fill: #333333; stroke: #000000"/>
      </g>
     </g>
     <g id="text_10">
      <!-- 0.75 -->
      <g style="fill: #4d4d4d" transform="translate(22.245938 101.293183)scale(0.088 -0.088)">
       <defs>
        <path id="DejaVuSans-37" d="M 525 4666 
L 3525 4666 
L 3525 4397 
L 1831 0 
L 1172 0 
L 2766 4134 
L 525 4134 
L 525 4666 
z
" transform="scale(0.015625)"/>
       </defs>
       <use xlink:href="#DejaVuSans-30"/>
       <use xlink:href="#DejaVuSans-2e" x="63.623047"/>
       <use xlink:href="#DejaVuSans-37" x="95.410156"/>
       <use xlink:href="#DejaVuSans-35" x="159.033203"/>
      </g>
     </g>
    </g>
    <g id="ytick_5">
     <g id="line2d_19">
      <path d="M 46.789688 38.384933 
L 403.909688 38.384933 
" clip-path="url(#pff44f13876)" style="fill: none; stroke: #ffffff"/>
     </g>
     <g id="line2d_20">
      <path d="M 46.789688 38.384933 
" style="fill: none; stroke: #333333; stroke-width: 1.5"/>
      <g>
       <use xlink:href="#m47b4f96eb0" x="46.789688" y="38.384933" style="fill: #333333; stroke: #000000"/>
      </g>
     </g>
     <g id="text_11">
      <!-- 1 -->
      <g style="fill: #4d4d4d" transform="translate(36.240688 40.813183)scale(0.088 -0.088)">
       <defs>
        <path id="DejaVuSans-31" d="M 794 531 
L 1825 531 
L 1825 4091 
L 703 3866 
L 703 4441 
L 1819 4666 
L 2450 4666 
L 2450 531 
L 3481 531 
L 3481 0 
L 794 0 
L 794 531 
z
" transform="scale(0.015625)"/>
       </defs>
       <use xlink:href="#DejaVuSans-31"/>
      </g>
     </g>
    </g>
    <g id="ytick_6"/>
    <g id="ytick_7"/>
    <g id="ytick_8"/>
    <g id="ytick_9"/>
    <g id="text_12">
     <!-- FPR mean -->
     <g transform="translate(15.558281 185.263886)rotate(-90)scale(0.11 -0.11)">
      <defs>
       <path id="DejaVuSans-52" d="M 2841 2188 
Q 3044 2119 3236 1894 
Q 3428 1669 3622 1275 
L 4263 0 
L 3584 0 
L 2988 1197 
Q 2756 1666 2539 1819 
Q 2322 1972 1947 1972 
L 1259 1972 
L 1259 0 
L 628 0 
L 628 4666 
L 2053 4666 
Q 2853 4666 3247 4331 
Q 3641 3997 3641 3322 
Q 3641 2881 3436 2590 
Q 3231 2300 2841 2188 
z
M 1259 4147 
L 1259 2491 
L 2053 2491 
Q 2509 2491 2742 2702 
Q 2975 2913 2975 3322 
Q 2975 3731 2742 3939 
Q 2509 4147 2053 4147 
L 1259 4147 
z
" transform="scale(0.015625)"/>
       <path id="DejaVuSans-6d" d="M 3328 2828 
Q 3544 3216 3844 3400 
Q 4144 3584 4550 3584 
Q 5097 3584 5394 3201 
Q 5691 2819 5691 2113 
L 5691 0 
L 5113 0 
L 5113 2094 
Q 5113 2597 4934 2840 
Q 4756 3084 4391 3084 
Q 3944 3084 3684 2787 
Q 3425 2491 3425 1978 
L 3425 0 
L 2847 0 
L 2847 2094 
Q 2847 2600 2669 2842 
Q 2491 3084 2119 3084 
Q 1678 3084 1418 2786 
Q 1159 2488 1159 1978 
L 1159 0 
L 581 0 
L 581 3500 
L 1159 3500 
L 1159 2956 
Q 1356 3278 1631 3431 
Q 1906 3584 2284 3584 
Q 2666 3584 2933 3390 
Q 3200 3197 3328 2828 
z
" transform="scale(0.015625)"/>
      </defs>
      <use xlink:href="#DejaVuSans-46"/>
      <use xlink:href="#DejaVuSans-50" x="57.519531"/>
      <use xlink:href="#DejaVuSans-52" x="117.822266"/>
      <use xlink:href="#DejaVuSans-20" x="187.304688"/>
      <use xlink:href="#DejaVuSans-6d" x="219.091797"/>
      <use xlink:href="#DejaVuSans-65" x="316.503906"/>
      <use xlink:href="#DejaVuSans-61" x="378.027344"/>
      <use xlink:href="#DejaVuSans-6e" x="439.306641"/>
     </g>
    </g>
   </g>
   <g id="PolyCollection_1">
    <path d="M 87.995841 280.304933 
L 87.995841 241.173435 
L 117.526918 241.173435 
L 117.526918 280.304933 
z
" clip-path="url(#pff44f13876)" style="fill: #57d3db"/>
    <path d="M 58.464764 280.304933 
L 58.464764 271.81647 
L 87.995841 271.81647 
L 87.995841 280.304933 
z
" clip-path="url(#pff44f13876)" style="fill: #db5f57"/>
    <path d="M 156.672764 280.304933 
L 156.672764 258.698021 
L 186.203841 258.698021 
L 186.203841 280.304933 
z
" clip-path="url(#pff44f13876)" style="fill: #57d3db"/>
    <path d="M 127.141688 280.304933 
L 127.141688 258.398877 
L 156.672764 258.398877 
L 156.672764 280.304933 
z
" clip-path="url(#pff44f13876)" style="fill: #db5f57"/>
    <path d="M 225.349688 280.304933 
L 225.349688 249.629393 
L 254.880764 249.629393 
L 254.880764 280.304933 
z
" clip-path="url(#pff44f13876)" style="fill: #57d3db"/>
    <path d="M 195.818611 280.304933 
L 195.818611 276.839482 
L 225.349688 276.839482 
L 225.349688 280.304933 
z
" clip-path="url(#pff44f13876)" style="fill: #db5f57"/>
    <path d="M 294.026611 280.304933 
L 294.026611 259.075714 
L 323.557688 259.075714 
L 323.557688 280.304933 
z
" clip-path="url(#pff44f13876)" style="fill: #57d3db"/>
    <path d="M 264.495534 280.304933 
L 264.495534 275.135443 
L 294.026611 275.135443 
L 294.026611 280.304933 
z
" clip-path="url(#pff44f13876)" style="fill: #db5f57"/>
    <path d="M 362.703534 280.304933 
L 362.703534 275.137176 
L 392.234611 275.137176 
L 392.234611 280.304933 
z
" clip-path="url(#pff44f13876)" style="fill: #57d3db"/>
    <path d="M 333.172457 280.304933 
L 333.172457 273.556301 
L 362.703534 273.556301 
L 362.703534 280.304933 
z
" clip-path="url(#pff44f13876)" style="fill: #db5f57"/>
   </g>
   <g id="LineCollection_1">
    <path d="M 66.362611 272.137806 
L 80.097995 272.137806 
" clip-path="url(#pff44f13876)" style="fill: none; stroke: #000000; stroke-width: 0.886227"/>
    <path d="M 66.362611 271.495133 
L 80.097995 271.495133 
" clip-path="url(#pff44f13876)" style="fill: none; stroke: #000000; stroke-width: 0.886227"/>
    <path d="M 73.230303 271.495133 
L 73.230303 272.137806 
" clip-path="url(#pff44f13876)" style="fill: none; stroke: #000000; stroke-width: 0.886227"/>
   </g>
   <g id="LineCollection_2">
    <path d="M 95.893688 241.778665 
L 109.629072 241.778665 
" clip-path="url(#pff44f13876)" style="fill: none; stroke: #000000; stroke-width: 0.886227"/>
    <path d="M 95.893688 240.568206 
L 109.629072 240.568206 
" clip-path="url(#pff44f13876)" style="fill: none; stroke: #000000; stroke-width: 0.886227"/>
    <path d="M 102.76138 240.568206 
L 102.76138 241.778665 
" clip-path="url(#pff44f13876)" style="fill: none; stroke: #000000; stroke-width: 0.886227"/>
   </g>
   <g id="LineCollection_3">
    <path d="M 135.039534 258.888239 
L 148.774918 258.888239 
" clip-path="url(#pff44f13876)" style="fill: none; stroke: #000000; stroke-width: 0.886227"/>
    <path d="M 135.039534 257.909515 
L 148.774918 257.909515 
" clip-path="url(#pff44f13876)" style="fill: none; stroke: #000000; stroke-width: 0.886227"/>
    <path d="M 141.907226 257.909515 
L 141.907226 258.888239 
" clip-path="url(#pff44f13876)" style="fill: none; stroke: #000000; stroke-width: 0.886227"/>
   </g>
   <g id="LineCollection_4">
    <path d="M 164.570611 259.184578 
L 178.305995 259.184578 
" clip-path="url(#pff44f13876)" style="fill: none; stroke: #000000; stroke-width: 0.886227"/>
    <path d="M 164.570611 258.211464 
L 178.305995 258.211464 
" clip-path="url(#pff44f13876)" style="fill: none; stroke: #000000; stroke-width: 0.886227"/>
    <path d="M 171.438303 258.211464 
L 171.438303 259.184578 
" clip-path="url(#pff44f13876)" style="fill: none; stroke: #000000; stroke-width: 0.886227"/>
   </g>
   <g id="LineCollection_5">
    <path d="M 203.716457 277.004794 
L 217.451841 277.004794 
" clip-path="url(#pff44f13876)" style="fill: none; stroke: #000000; stroke-width: 0.886227"/>
    <path d="M 203.716457 276.674171 
L 217.451841 276.674171 
" clip-path="url(#pff44f13876)" style="fill: none; stroke: #000000; stroke-width: 0.886227"/>
    <path d="M 210.584149 276.674171 
L 210.584149 277.004794 
" clip-path="url(#pff44f13876)" style="fill: none; stroke: #000000; stroke-width: 0.886227"/>
   </g>
   <g id="LineCollection_6">
    <path d="M 233.247534 250.076869 
L 246.982918 250.076869 
" clip-path="url(#pff44f13876)" style="fill: none; stroke: #000000; stroke-width: 0.886227"/>
    <path d="M 233.247534 249.181916 
L 246.982918 249.181916 
" clip-path="url(#pff44f13876)" style="fill: none; stroke: #000000; stroke-width: 0.886227"/>
    <path d="M 240.115226 249.181916 
L 240.115226 250.076869 
" clip-path="url(#pff44f13876)" style="fill: none; stroke: #000000; stroke-width: 0.886227"/>
   </g>
   <g id="LineCollection_7">
    <path d="M 272.39338 275.365457 
L 286.128764 275.365457 
" clip-path="url(#pff44f13876)" style="fill: none; stroke: #000000; stroke-width: 0.886227"/>
    <path d="M 272.39338 274.905429 
L 286.128764 274.905429 
" clip-path="url(#pff44f13876)" style="fill: none; stroke: #000000; stroke-width: 0.886227"/>
    <path d="M 279.261072 274.905429 
L 279.261072 275.365457 
" clip-path="url(#pff44f13876)" style="fill: none; stroke: #000000; stroke-width: 0.886227"/>
   </g>
   <g id="LineCollection_8">
    <path d="M 301.924457 259.536715 
L 315.659841 259.536715 
" clip-path="url(#pff44f13876)" style="fill: none; stroke: #000000; stroke-width: 0.886227"/>
    <path d="M 301.924457 258.614714 
L 315.659841 258.614714 
" clip-path="url(#pff44f13876)" style="fill: none; stroke: #000000; stroke-width: 0.886227"/>
    <path d="M 308.792149 258.614714 
L 308.792149 259.536715 
" clip-path="url(#pff44f13876)" style="fill: none; stroke: #000000; stroke-width: 0.886227"/>
   </g>
   <g id="LineCollection_9">
    <path d="M 341.070303 273.865059 
L 354.805688 273.865059 
" clip-path="url(#pff44f13876)" style="fill: none; stroke: #000000; stroke-width: 0.886227"/>
    <path d="M 341.070303 273.247544 
L 354.805688 273.247544 
" clip-path="url(#pff44f13876)" style="fill: none; stroke: #000000; stroke-width: 0.886227"/>
    <path d="M 347.937995 273.247544 
L 347.937995 273.865059 
" clip-path="url(#pff44f13876)" style="fill: none; stroke: #000000; stroke-width: 0.886227"/>
   </g>
   <g id="LineCollection_10">
    <path d="M 370.60138 275.326377 
L 384.336764 275.326377 
" clip-path="url(#pff44f13876)" style="fill: none; stroke: #000000; stroke-width: 0.886227"/>
    <path d="M 370.60138 274.947976 
L 384.336764 274.947976 
" clip-path="url(#pff44f13876)" style="fill: none; stroke: #000000; stroke-width: 0.886227"/>
    <path d="M 377.469072 274.947976 
L 377.469072 275.326377 
" clip-path="url(#pff44f13876)" style="fill: none; stroke: #000000; stroke-width: 0.886227"/>
   </g>
   <g id="patch_3">
    <path d="M 411.109688 194.179902 
L 568.097938 194.179902 
L 568.097938 121.053964 
L 411.109688 121.053964 
z
" style="fill: #ffffff"/>
   </g>
   <g id="text_13">
    <!-- Group -->
    <g transform="translate(423.309687 144.647558)scale(0.11 -0.11)">
     <defs>
      <path id="DejaVuSans-47" d="M 3809 666 
L 3809 1919 
L 2778 1919 
L 2778 2438 
L 4434 2438 
L 4434 434 
Q 4069 175 3628 42 
Q 3188 -91 2688 -91 
Q 1594 -91 976 548 
Q 359 1188 359 2328 
Q 359 3472 976 4111 
Q 1594 4750 2688 4750 
Q 3144 4750 3555 4637 
Q 3966 4525 4313 4306 
L 4313 3634 
Q 3963 3931 3569 4081 
Q 3175 4231 2741 4231 
Q 1884 4231 1454 3753 
Q 1025 3275 1025 2328 
Q 1025 1384 1454 906 
Q 1884 428 2741 428 
Q 3075 428 3337 486 
Q 3600 544 3809 666 
z
" transform="scale(0.015625)"/>
     </defs>
     <use xlink:href="#DejaVuSans-47"/>
     <use xlink:href="#DejaVuSans-72" x="77.490234"/>
     <use xlink:href="#DejaVuSans-6f" x="116.353516"/>
     <use xlink:href="#DejaVuSans-75" x="177.535156"/>
     <use xlink:href="#DejaVuSans-70" x="240.914062"/>
    </g>
   </g>
   <g id="patch_4">
    <path d="M 423.309687 164.139902 
L 439.149687 164.139902 
L 439.149687 148.299902 
L 423.309687 148.299902 
z
" clip-path="url(#p9884d9bc53)" style="fill: #f2f2f2"/>
   </g>
   <g id="patch_5">
    <path d="M 423.309687 164.139902 
L 439.149687 164.139902 
L 439.149687 148.299902 
L 423.309687 148.299902 
z
" clip-path="url(#p9884d9bc53)" style="fill: #db5f57"/>
   </g>
   <g id="text_14">
    <!-- Black or African American -->
    <g transform="translate(442.149688 158.648152)scale(0.088 -0.088)">
     <defs>
      <path id="DejaVuSans-42" d="M 1259 2228 
L 1259 519 
L 2272 519 
Q 2781 519 3026 730 
Q 3272 941 3272 1375 
Q 3272 1813 3026 2020 
Q 2781 2228 2272 2228 
L 1259 2228 
z
M 1259 4147 
L 1259 2741 
L 2194 2741 
Q 2656 2741 2882 2914 
Q 3109 3088 3109 3444 
Q 3109 3797 2882 3972 
Q 2656 4147 2194 4147 
L 1259 4147 
z
M 628 4666 
L 2241 4666 
Q 2963 4666 3353 4366 
Q 3744 4066 3744 3513 
Q 3744 3084 3544 2831 
Q 3344 2578 2956 2516 
Q 3422 2416 3680 2098 
Q 3938 1781 3938 1306 
Q 3938 681 3513 340 
Q 3088 0 2303 0 
L 628 0 
L 628 4666 
z
" transform="scale(0.015625)"/>
      <path id="DejaVuSans-6b" d="M 581 4863 
L 1159 4863 
L 1159 1991 
L 2875 3500 
L 3609 3500 
L 1753 1863 
L 3688 0 
L 2938 0 
L 1159 1709 
L 1159 0 
L 581 0 
L 581 4863 
z
" transform="scale(0.015625)"/>
     </defs>
     <use xlink:href="#DejaVuSans-42"/>
     <use xlink:href="#DejaVuSans-6c" x="68.603516"/>
     <use xlink:href="#DejaVuSans-61" x="96.386719"/>
     <use xlink:href="#DejaVuSans-63" x="157.666016"/>
     <use xlink:href="#DejaVuSans-6b" x="212.646484"/>
     <use xlink:href="#DejaVuSans-20" x="270.556641"/>
     <use xlink:href="#DejaVuSans-6f" x="302.34375"/>
     <use xlink:href="#DejaVuSans-72" x="363.525391"/>
     <use xlink:href="#DejaVuSans-20" x="404.638672"/>
     <use xlink:href="#DejaVuSans-41" x="436.425781"/>
     <use xlink:href="#DejaVuSans-66" x="501.208984"/>
     <use xlink:href="#DejaVuSans-72" x="536.414062"/>
     <use xlink:href="#DejaVuSans-69" x="577.527344"/>
     <use xlink:href="#DejaVuSans-63" x="605.310547"/>
     <use xlink:href="#DejaVuSans-61" x="660.291016"/>
     <use xlink:href="#DejaVuSans-6e" x="721.570312"/>
     <use xlink:href="#DejaVuSans-20" x="784.949219"/>
     <use xlink:href="#DejaVuSans-41" x="816.736328"/>
     <use xlink:href="#DejaVuSans-6d" x="885.144531"/>
     <use xlink:href="#DejaVuSans-65" x="982.556641"/>
     <use xlink:href="#DejaVuSans-72" x="1044.080078"/>
     <use xlink:href="#DejaVuSans-69" x="1085.193359"/>
     <use xlink:href="#DejaVuSans-63" x="1112.976562"/>
     <use xlink:href="#DejaVuSans-61" x="1167.957031"/>
     <use xlink:href="#DejaVuSans-6e" x="1229.236328"/>
    </g>
   </g>
   <g id="patch_6">
    <path d="M 423.309687 181.979902 
L 439.149687 181.979902 
L 439.149687 166.139902 
L 423.309687 166.139902 
z
" clip-path="url(#p64a50c9a05)" style="fill: #f2f2f2"/>
   </g>
   <g id="patch_7">
    <path d="M 423.309687 181.979902 
L 439.149687 181.979902 
L 439.149687 166.139902 
L 423.309687 166.139902 
z
" clip-path="url(#p64a50c9a05)" style="fill: #57d3db"/>
   </g>
   <g id="text_15">
    <!-- White -->
    <g transform="translate(442.149688 176.488152)scale(0.088 -0.088)">
     <defs>
      <path id="DejaVuSans-57" d="M 213 4666 
L 850 4666 
L 1831 722 
L 2809 4666 
L 3519 4666 
L 4500 722 
L 5478 4666 
L 6119 4666 
L 4947 0 
L 4153 0 
L 3169 4050 
L 2175 0 
L 1381 0 
L 213 4666 
z
" transform="scale(0.015625)"/>
     </defs>
     <use xlink:href="#DejaVuSans-57"/>
     <use xlink:href="#DejaVuSans-68" x="98.876953"/>
     <use xlink:href="#DejaVuSans-69" x="162.255859"/>
     <use xlink:href="#DejaVuSans-74" x="190.039062"/>
     <use xlink:href="#DejaVuSans-65" x="229.248047"/>
    </g>
   </g>
  </g>
  <g id="text_16">
   <!-- FPR derived_race -->
   <g transform="translate(162.4275 17.229938)scale(0.132 -0.132)">
    <defs>
     <path id="DejaVuSans-76" d="M 191 3500 
L 800 3500 
L 1894 563 
L 2988 3500 
L 3597 3500 
L 2284 0 
L 1503 0 
L 191 3500 
z
" transform="scale(0.015625)"/>
     <path id="DejaVuSans-5f" d="M 3263 -1063 
L 3263 -1509 
L -63 -1509 
L -63 -1063 
L 3263 -1063 
z
" transform="scale(0.015625)"/>
    </defs>
    <use xlink:href="#DejaVuSans-46"/>
    <use xlink:href="#DejaVuSans-50" x="57.519531"/>
    <use xlink:href="#DejaVuSans-52" x="117.822266"/>
    <use xlink:href="#DejaVuSans-20" x="187.304688"/>
    <use xlink:href="#DejaVuSans-64" x="219.091797"/>
    <use xlink:href="#DejaVuSans-65" x="282.568359"/>
    <use xlink:href="#DejaVuSans-72" x="344.091797"/>
    <use xlink:href="#DejaVuSans-69" x="385.205078"/>
    <use xlink:href="#DejaVuSans-76" x="412.988281"/>
    <use xlink:href="#DejaVuSans-65" x="472.167969"/>
    <use xlink:href="#DejaVuSans-64" x="533.691406"/>
    <use xlink:href="#DejaVuSans-5f" x="597.167969"/>
    <use xlink:href="#DejaVuSans-72" x="647.167969"/>
    <use xlink:href="#DejaVuSans-61" x="688.28125"/>
    <use xlink:href="#DejaVuSans-63" x="749.560547"/>
    <use xlink:href="#DejaVuSans-65" x="804.541016"/>
   </g>
  </g>
 </g>
 <defs>
  <clipPath id="pff44f13876">
   <rect x="46.789688" y="26.288933" width="357.12" height="266.112"/>
  </clipPath>
  <clipPath id="p9884d9bc53">
   <path d="M 423.309687 164.139902 
L 423.309687 148.299902 
L 439.149687 148.299902 
L 439.149687 164.139902 
"/>
  </clipPath>
  <clipPath id="p64a50c9a05">
   <path d="M 423.309687 181.979902 
L 423.309687 166.139902 
L 439.149687 166.139902 
L 439.149687 181.979902 
"/>
  </clipPath>
 </defs>
</svg>
